<svg width="100%" height="100%" id="svg" viewBox="0 0 1440 690" xmlns="http://www.w3.org/2000/svg" class="transition duration-300 ease-in-out delay-150"><defs><linearGradient id="gradient" x1="0%" y1="50%" x2="100%" y2="50%"><stop offset="5%" stop-color="#0693e3"></stop><stop offset="95%" stop-color="#8ED1FC"></stop></linearGradient></defs><path d="M 0,700 L 0,105 C 70.39175257731958,124.67452135493373 140.78350515463916,144.34904270986746 204,126 C 267.21649484536084,107.65095729013254 323.2577319587629,51.27835051546391 385,54 C 446.7422680412371,56.72164948453609 514.1855670103092,118.53755522827689 569,121 C 623.8144329896908,123.46244477172311 666,66.57142857142858 723,66 C 780,65.42857142857142 851.8144329896909,121.17673048600881 902,134 C 952.1855670103091,146.8232695139912 980.7422680412369,116.72164948453609 1046,107 C 1111.257731958763,97.27835051546391 1213.216494845361,107.93667157584683 1285,111 C 1356.783505154639,114.06332842415317 1398.3917525773195,109.53166421207658 1440,105 L 1440,700 L 0,700 Z" stroke="none" stroke-width="0" fill="url(#gradient)" fill-opacity="0.265" class="transition-all duration-300 ease-in-out delay-150 path-0"></path><defs><linearGradient id="gradient" x1="0%" y1="50%" x2="100%" y2="50%"><stop offset="5%" stop-color="#0693e3"></stop><stop offset="95%" stop-color="#8ED1FC"></stop></linearGradient></defs><path d="M 0,700 L 0,245 C 49.78847569955818,217.49779086892488 99.57695139911635,189.9955817378498 151,202 C 202.42304860088365,214.0044182621502 255.48067010309273,265.5154639175257 328,279 C 400.51932989690727,292.4845360824743 492.50036818851254,267.9425625920471 566,270 C 639.4996318114875,272.0574374079529 694.5178571428571,300.7142857142857 740,296 C 785.4821428571429,291.2857142857143 821.428203240059,253.20029455081 873,241 C 924.571796759941,228.79970544919 991.7693298969073,242.48453608247422 1063,255 C 1134.2306701030927,267.5154639175258 1209.4944771723124,278.86156111929307 1273,277 C 1336.5055228276876,275.13843888070693 1388.252761413844,260.06921944035344 1440,245 L 1440,700 L 0,700 Z" stroke="none" stroke-width="0" fill="url(#gradient)" fill-opacity="0.4" class="transition-all duration-300 ease-in-out delay-150 path-1"></path><defs><linearGradient id="gradient" x1="0%" y1="50%" x2="100%" y2="50%"><stop offset="5%" stop-color="#0693e3"></stop><stop offset="95%" stop-color="#8ED1FC"></stop></linearGradient></defs><path d="M 0,700 L 0,385 C 67.09112665684832,397.090206185567 134.18225331369663,409.180412371134 192,406 C 249.81774668630337,402.819587628866 298.3621134020619,384.36855670103085 359,390 C 419.6378865979381,395.63144329896915 492.369293078056,425.3453608247423 561,431 C 629.630706921944,436.6546391752577 694.1607142857142,418.25 742,413 C 789.8392857142858,407.75 820.9878497790869,415.6546391752577 885,408 C 949.0121502209131,400.3453608247423 1045.8878865979382,377.1314432989691 1104,385 C 1162.1121134020618,392.8685567010309 1181.4606038291604,431.819587628866 1231,437 C 1280.5393961708396,442.180412371134 1360.2696980854198,413.590206185567 1440,385 L 1440,700 L 0,700 Z" stroke="none" stroke-width="0" fill="url(#gradient)" fill-opacity="0.53" class="transition-all duration-300 ease-in-out delay-150 path-2"></path><defs><linearGradient id="gradient" x1="0%" y1="50%" x2="100%" y2="50%"><stop offset="5%" stop-color="#0693e3"></stop><stop offset="95%" stop-color="#8ED1FC"></stop></linearGradient></defs><path d="M 0,700 L 0,525 C 56.635677466863044,516.2317746686304 113.27135493372609,507.4635493372607 163,504 C 212.7286450662739,500.5364506627393 255.55025773195877,502.37757731958766 327,520 C 398.44974226804123,537.6224226804123 498.52761413843893,571.0261413843888 569,560 C 639.4723858615611,548.9738586156112 680.3392857142858,493.5178571428572 737,475 C 793.6607142857142,456.4821428571428 866.1152430044183,474.90243004418255 919,480 C 971.8847569955817,485.09756995581745 1005.1997422680411,476.87242268041246 1052,481 C 1098.800257731959,485.12757731958754 1159.085787923417,501.60787923416785 1226,511 C 1292.914212076583,520.3921207658321 1366.4571060382914,522.6960603829161 1440,525 L 1440,700 L 0,700 Z" stroke="none" stroke-width="0" fill="url(#gradient)" fill-opacity="1" class="transition-all duration-300 ease-in-out delay-150 path-3"></path></svg>